<svg width="236" height="41" viewBox="0 0 236 41" fill="none" xmlns="http://www.w3.org/2000/svg">
<g clip-path="url(#clip0_634_3594)">
<path d="M66.3694 6.43077L64.6836 10.124H55.2771C54.7196 10.124 54.2866 10.2725 53.9718 10.5631C53.6569 10.8536 53.4995 11.2604 53.4995 11.7705C53.4995 12.4807 54.1227 13.036 55.3624 13.4363C56.1758 13.7075 57.4615 13.9528 59.2194 14.1594C60.984 14.366 62.5058 14.6824 63.7915 15.1021C66.4481 16.1804 67.7469 17.956 67.701 20.4289C67.6682 22.1851 66.9335 23.5216 65.5101 24.4191C64.2703 25.2068 62.7813 25.5942 61.043 25.5942H47.832L49.5178 21.901H61.043C61.5743 21.901 62.0007 21.7977 62.3155 21.5846C62.6501 21.3005 62.8141 20.9002 62.801 20.3772C62.8141 19.4991 62.3615 18.8664 61.4431 18.4919C60.5838 18.1497 59.1079 17.8204 57.0154 17.5105C54.9229 17.2005 53.2371 16.826 51.9449 16.387C49.7081 15.4249 48.5864 13.8818 48.5864 11.7705C48.5864 10.1434 49.2751 8.83266 50.6526 7.82542C51.9186 6.89566 53.4536 6.42432 55.2575 6.42432H66.3497L66.3694 6.43077Z" fill="#BA2331"/>
<path d="M74.6476 25.5944H69.4131V6.44385H87.0058L85.2676 10.2339H74.6476V25.6009V25.5944ZM76.3859 13.9659H86.4024L84.6641 17.7495H74.6476L76.3859 13.9659ZM76.3859 21.8043H87.0058L85.2676 25.5879H74.6476L76.3859 21.8043Z" fill="#BA2331"/>
<path d="M108.2 6.44385L106.462 10.2275H98.5316C97.2591 10.2275 96.1374 10.6601 95.1797 11.5317C94.0646 12.539 93.5135 13.9853 93.5135 15.8706C93.5135 17.9561 94.0711 19.4993 95.1797 20.5065C96.1439 21.3782 97.2591 21.8108 98.5316 21.8108H108.2L106.462 25.5944H98.5316C95.5995 25.5944 93.1265 24.6775 91.1062 22.8438C89.217 21.1457 88.2725 18.8213 88.2725 15.8706C88.2725 13.1136 89.217 10.8925 91.1062 9.1944C93.12 7.3607 95.5995 6.44385 98.5316 6.44385H108.2Z" fill="#BA2331"/>
<path d="M109.958 6.44385H115.193V18.1369C115.193 19.2798 115.619 20.2353 116.478 21.0101C117.298 21.6494 118.459 21.9657 119.955 21.9657C121.45 21.9657 122.664 21.6494 123.608 21.0101C124.468 20.2353 124.894 19.2733 124.894 18.1369V6.44385H130.129V18.4468C130.129 20.4613 129.309 22.1982 127.675 23.6638C125.911 25.2651 123.34 26.0657 119.955 26.0657C116.57 26.0657 114.169 25.2651 112.411 23.6638C110.778 22.1982 109.958 20.4613 109.958 18.4468V6.44385Z" fill="#BA2331"/>
<path d="M138.138 25.5944H132.903V6.44385H146.377C148.404 6.44385 150.116 7.07015 151.506 8.31629C152.746 9.44621 153.369 11.0346 153.369 13.0749C153.369 15.1152 152.746 16.6971 151.506 17.8205C150.614 18.6276 149.545 19.1764 148.305 19.467L154.163 25.5944H147.82L142.185 19.6994H138.131L139.87 15.8964H146.37C146.744 15.8964 147.092 15.7479 147.413 15.4574C147.885 15.0377 148.128 14.2435 148.128 13.0684C148.128 11.8933 147.892 11.0862 147.413 10.6665C147.085 10.376 146.737 10.2275 146.37 10.2275H138.131V25.5944H138.138Z" fill="#BA2331"/>
<path d="M160.88 25.5944H155.646V6.44385H173.238L171.5 10.2339H160.88V25.6009V25.5944ZM162.618 13.9659H172.635L170.896 17.7495H160.88L162.618 13.9659ZM162.618 21.8043H173.238L171.5 25.5879H160.88L162.618 21.8043Z" fill="#BA2331"/>
<path d="M66.3694 6.43077L64.6836 10.124H55.2771C54.7196 10.124 54.2866 10.2725 53.9718 10.5631C53.6569 10.8536 53.4995 11.2604 53.4995 11.7705C53.4995 12.4807 54.1227 13.036 55.3624 13.4363C56.1758 13.7075 57.4615 13.9528 59.2194 14.1594C60.984 14.366 62.5058 14.6824 63.7915 15.1021C66.4481 16.1804 67.7469 17.956 67.701 20.4289C67.6682 22.1851 66.9335 23.5216 65.5101 24.4191C64.2703 25.2068 62.7813 25.5942 61.043 25.5942H47.832L49.5178 21.901H61.043C61.5743 21.901 62.0007 21.7977 62.3155 21.5846C62.6501 21.3005 62.8141 20.9002 62.801 20.3772C62.8141 19.4991 62.3615 18.8664 61.4431 18.4919C60.5838 18.1497 59.1079 17.8204 57.0154 17.5105C54.9229 17.2005 53.2371 16.826 51.9449 16.387C49.7081 15.4249 48.5864 13.8818 48.5864 11.7705C48.5864 10.1434 49.2751 8.83266 50.6526 7.82542C51.9186 6.89566 53.4536 6.42432 55.2575 6.42432H66.3497L66.3694 6.43077Z" fill="#BA2331"/>
<path d="M74.6476 25.5944H69.4131V6.44385H87.0058L85.2676 10.2339H74.6476V25.6009V25.5944ZM76.3859 13.9659H86.4024L84.6641 17.7495H74.6476L76.3859 13.9659ZM76.3859 21.8043H87.0058L85.2676 25.5879H74.6476L76.3859 21.8043Z" fill="#BA2331"/>
<path d="M108.2 6.44385L106.462 10.2275H98.5316C97.2591 10.2275 96.1374 10.6601 95.1797 11.5317C94.0646 12.539 93.5135 13.9853 93.5135 15.8706C93.5135 17.9561 94.0711 19.4993 95.1797 20.5065C96.1439 21.3782 97.2591 21.8108 98.5316 21.8108H108.2L106.462 25.5944H98.5316C95.5995 25.5944 93.1265 24.6775 91.1062 22.8438C89.217 21.1457 88.2725 18.8213 88.2725 15.8706C88.2725 13.1136 89.217 10.8925 91.1062 9.1944C93.12 7.3607 95.5995 6.44385 98.5316 6.44385H108.2Z" fill="#BA2331"/>
<path d="M109.958 6.44385H115.193V18.1369C115.193 19.2798 115.619 20.2353 116.478 21.0101C117.298 21.6494 118.459 21.9657 119.955 21.9657C121.45 21.9657 122.664 21.6494 123.608 21.0101C124.468 20.2353 124.894 19.2733 124.894 18.1369V6.44385H130.129V18.4468C130.129 20.4613 129.309 22.1982 127.675 23.6638C125.911 25.2651 123.34 26.0657 119.955 26.0657C116.57 26.0657 114.169 25.2651 112.411 23.6638C110.778 22.1982 109.958 20.4613 109.958 18.4468V6.44385Z" fill="#BA2331"/>
<path d="M138.138 25.5944H132.903V6.44385H146.377C148.404 6.44385 150.116 7.07015 151.506 8.31629C152.746 9.44621 153.369 11.0346 153.369 13.0749C153.369 15.1152 152.746 16.6971 151.506 17.8205C150.614 18.6276 149.545 19.1764 148.305 19.467L154.163 25.5944H147.82L142.185 19.6994H138.131L139.87 15.8964H146.37C146.744 15.8964 147.092 15.7479 147.413 15.4574C147.885 15.0377 148.128 14.2435 148.128 13.0684C148.128 11.8933 147.892 11.0862 147.413 10.6665C147.085 10.376 146.737 10.2275 146.37 10.2275H138.131V25.5944H138.138Z" fill="#BA2331"/>
<path d="M160.88 25.5944H155.646V6.44385H173.238L171.5 10.2339H160.88V25.6009V25.5944ZM162.618 13.9659H172.635L170.896 17.7495H160.88L162.618 13.9659ZM162.618 21.8043H173.238L171.5 25.5879H160.88L162.618 21.8043Z" fill="#BA2331"/>
<path d="M181.602 6.44385H176.367V25.5944H181.602V6.44385Z" fill="#292928"/>
<path d="M202.048 6.43077L200.362 10.124H190.956C190.398 10.124 189.965 10.2725 189.65 10.5631C189.336 10.8536 189.178 11.2604 189.178 11.7705C189.178 12.4807 189.795 13.036 191.041 13.4363C191.854 13.7075 193.14 13.9528 194.898 14.1594C196.663 14.366 198.184 14.6824 199.47 15.1021C202.127 16.1804 203.426 17.956 203.38 20.4289C203.347 22.1851 202.612 23.5216 201.189 24.4191C199.949 25.2068 198.46 25.5942 196.722 25.5942H183.511L185.197 21.901H196.722C197.253 21.901 197.679 21.7977 197.994 21.5846C198.329 21.3005 198.493 20.9002 198.48 20.3772C198.493 19.4991 198.04 18.8664 197.122 18.4919C196.263 18.1497 194.787 17.8204 192.694 17.5105C190.602 17.2005 188.916 16.826 187.624 16.387C185.387 15.4249 184.265 13.8818 184.265 11.7705C184.265 10.1434 184.954 8.83266 186.331 7.82542C187.597 6.89566 189.132 6.42432 190.936 6.42432H202.028L202.048 6.43077Z" fill="#292928"/>
<path d="M209.979 25.5944H205.092V6.44385H208.745L216.013 17.2072L213.737 20.5065L209.979 15.1798V25.5944ZM224.915 6.44385L214.551 21.6816L216.827 25.0004L223.675 15.1798V25.5944H228.562V6.44385H224.908H224.915Z" fill="#292928"/>
<path d="M53.1255 35.7506L54.5686 36.2026C54.3455 36.9968 53.9782 37.5843 53.4666 37.9653C52.9549 38.3527 52.299 38.5399 51.5118 38.5399C50.5344 38.5399 49.7276 38.2106 49.0979 37.552C48.4682 36.8935 48.1533 35.996 48.1533 34.8531C48.1533 33.6457 48.4682 32.7095 49.1045 32.0445C49.7407 31.3794 50.5672 31.0437 51.6036 31.0437C52.5023 31.0437 53.237 31.3084 53.8011 31.8314C54.1356 32.1413 54.3849 32.5868 54.5555 33.168L53.0861 33.5166C53.0008 33.1421 52.8172 32.8451 52.5417 32.6256C52.2662 32.4061 51.9316 32.2963 51.5315 32.2963C50.987 32.2963 50.541 32.49 50.1999 32.8774C49.8588 33.2648 49.6883 33.8911 49.6883 34.7498C49.6883 35.6667 49.8588 36.3188 50.1933 36.7062C50.5279 37.0936 50.9608 37.2873 51.4987 37.2873C51.8923 37.2873 52.2334 37.1646 52.5154 36.9193C52.7975 36.6739 53.0074 36.2801 53.1255 35.7506Z" fill="#292928"/>
<path d="M59.0557 31.1665H60.5447V35.0922C60.5447 35.712 60.5644 36.1188 60.5972 36.306C60.6628 36.603 60.8136 36.8419 61.0498 37.0227C61.2925 37.2035 61.6139 37.2939 62.0337 37.2939C62.4535 37.2939 62.7749 37.21 62.9848 37.0421C63.2013 36.8742 63.3259 36.6611 63.3719 36.4158C63.4178 36.1704 63.4375 35.7572 63.4375 35.1826V31.173H64.9265V34.9824C64.9265 35.8541 64.8871 36.4674 64.8084 36.829C64.7297 37.1906 64.5788 37.4941 64.3624 37.7394C64.1459 37.9848 63.8573 38.1849 63.4965 38.3334C63.1357 38.4819 62.6634 38.553 62.0796 38.553C61.3778 38.553 60.8399 38.4755 60.4791 38.3141C60.1183 38.1526 59.8297 37.946 59.6198 37.6878C59.4099 37.4295 59.2721 37.1648 59.2 36.8871C59.1016 36.4739 59.0557 35.8605 59.0557 35.047V31.1794V31.1665Z" fill="#292928"/>
<path d="M69.7549 38.4174V31.2246H71.2439V37.1971H74.9435V38.4174H69.7549Z" fill="#292928"/>
<path d="M80.6958 38.4174V32.3933H78.5049V31.1665H84.3626V32.3933H82.1782V38.4174H80.6958Z" fill="#292928"/>
<path d="M89.9841 31.1665H88.4951V38.4174H89.9841V31.1665Z" fill="#292928"/>
<path d="M96.4976 38.4174L93.8672 31.1665H95.4808L97.3437 36.532L99.1476 31.1665H100.722L98.085 38.4174H96.4976Z" fill="#292928"/>
<path d="M110.962 38.4174H109.342L108.699 36.7709H105.754L105.144 38.4174H103.569L106.436 31.1665H108.01L110.962 38.4174ZM108.227 35.5506L107.21 32.8582L106.213 35.5506H108.22H108.227Z" fill="#292928"/>
<path d="M116.249 38.4174V32.3933H114.064V31.1665H119.916V32.3933H117.738V38.4174H116.249Z" fill="#292928"/>
<path d="M125.537 31.1665H124.048V38.4174H125.537V31.1665Z" fill="#292928"/>
<path d="M130.188 38.4174V31.1665H131.637L134.648 36.009V31.1665H136.032V38.4174H134.536L131.572 33.6911V38.4174H130.188Z" fill="#292928"/>
<path d="M144.251 35.7507V34.5304H147.459V37.4166C147.144 37.7136 146.698 37.9718 146.108 38.1978C145.517 38.4238 144.92 38.5336 144.31 38.5336C143.543 38.5336 142.867 38.3722 142.296 38.0558C141.726 37.7394 141.293 37.281 141.004 36.6934C140.716 36.0994 140.571 35.4602 140.571 34.7629C140.571 34.0074 140.735 33.3359 141.05 32.7484C141.372 32.1608 141.844 31.7089 142.46 31.3989C142.933 31.16 143.523 31.0374 144.225 31.0374C145.137 31.0374 145.852 31.2246 146.37 31.6055C146.882 31.98 147.216 32.503 147.36 33.1681L145.885 33.4392C145.78 33.0841 145.583 32.8 145.301 32.5934C145.012 32.3868 144.658 32.2835 144.225 32.2835C143.576 32.2835 143.057 32.4837 142.677 32.8904C142.296 33.2972 142.1 33.8977 142.1 34.6983C142.1 35.557 142.296 36.2027 142.683 36.6353C143.07 37.0679 143.582 37.281 144.212 37.281C144.52 37.281 144.835 37.2229 145.15 37.1002C145.465 36.9775 145.734 36.8355 145.957 36.6611V35.7443H144.251V35.7507Z" fill="#292928"/>
<path d="M156.092 35.7894L157.541 35.6539C157.627 36.1317 157.804 36.4803 158.073 36.7063C158.342 36.9323 158.696 37.042 159.149 37.042C159.627 37.042 159.988 36.9452 160.231 36.745C160.474 36.5449 160.598 36.3124 160.598 36.0477C160.598 35.8734 160.546 35.7313 160.447 35.6087C160.342 35.486 160.165 35.3827 159.909 35.2923C159.732 35.2342 159.339 35.1244 158.722 34.9759C157.922 34.7822 157.364 34.5433 157.043 34.2592C156.59 33.8589 156.367 33.3746 156.367 32.8C156.367 32.432 156.472 32.0833 156.689 31.7669C156.899 31.4441 157.207 31.1987 157.607 31.0309C158.007 30.863 158.493 30.7791 159.057 30.7791C159.982 30.7791 160.677 30.9792 161.143 31.3795C161.608 31.7798 161.858 32.3093 161.877 32.9743L160.388 33.0389C160.323 32.6644 160.192 32.3997 159.982 32.2383C159.772 32.0768 159.457 31.9929 159.037 31.9929C158.617 31.9929 158.27 32.0768 158.02 32.2576C157.863 32.3674 157.784 32.5224 157.784 32.7096C157.784 32.8839 157.856 33.026 158.007 33.1487C158.197 33.3036 158.65 33.465 159.372 33.6329C160.093 33.8008 160.631 33.9751 160.979 34.1559C161.326 34.3367 161.595 34.582 161.792 34.892C161.989 35.2019 162.087 35.5893 162.087 36.0477C162.087 36.4609 161.969 36.8548 161.733 37.2164C161.497 37.578 161.169 37.8491 160.736 38.0235C160.303 38.1978 159.772 38.2882 159.135 38.2882C158.204 38.2882 157.489 38.0751 156.99 37.6554C156.492 37.2293 156.19 36.6159 156.098 35.8024" fill="#BA2331"/>
<path d="M166.547 38.1527V30.9019H172.011V32.1286H168.036V33.7363H171.729V34.9567H168.036V36.9324H172.149V38.1527H166.547Z" fill="#BA2331"/>
<path d="M181.346 35.486L182.789 35.938C182.566 36.7321 182.199 37.3197 181.687 37.7006C181.176 38.088 180.52 38.2753 179.733 38.2753C178.755 38.2753 177.948 37.946 177.319 37.2874C176.689 36.6288 176.374 35.7313 176.374 34.5885C176.374 33.3811 176.689 32.4449 177.325 31.7798C177.961 31.1148 178.788 30.7791 179.824 30.7791C180.723 30.7791 181.458 31.0438 182.022 31.5668C182.356 31.8767 182.606 32.3222 182.776 32.9033L181.307 33.252C181.222 32.8775 181.038 32.5805 180.762 32.3609C180.487 32.1414 180.152 32.0317 179.752 32.0317C179.208 32.0317 178.762 32.2254 178.421 32.6128C178.08 33.0002 177.909 33.6265 177.909 34.4852C177.909 35.402 178.08 36.0542 178.414 36.4416C178.749 36.829 179.182 37.0227 179.719 37.0227C180.113 37.0227 180.454 36.9 180.736 36.6546C181.018 36.4093 181.228 36.0154 181.346 35.486Z" fill="#BA2331"/>
<path d="M187.269 30.9019H188.758V34.8275C188.758 35.4474 188.777 35.8541 188.81 36.0414C188.876 36.3384 189.027 36.5773 189.263 36.7581C189.505 36.9389 189.827 37.0293 190.247 37.0293C190.666 37.0293 190.988 36.9453 191.198 36.7774C191.414 36.6096 191.539 36.3965 191.585 36.1511C191.631 35.9058 191.65 35.4926 191.65 34.9179V30.9083H193.139V34.7178C193.139 35.5894 193.1 36.2028 193.021 36.5644C192.943 36.926 192.792 37.2294 192.575 37.4748C192.359 37.7201 192.07 37.9203 191.709 38.0688C191.349 38.2173 190.876 38.2883 190.293 38.2883C189.591 38.2883 189.053 38.2108 188.692 38.0494C188.331 37.888 188.043 37.6814 187.833 37.4231C187.623 37.1648 187.485 36.9001 187.413 36.6225C187.314 36.2093 187.269 35.5959 187.269 34.7823V30.9148V30.9019Z" fill="#BA2331"/>
<path d="M197.935 38.1527V30.9019H201.063C201.851 30.9019 202.421 30.9664 202.782 31.0956C203.136 31.2247 203.425 31.4571 203.641 31.7929C203.858 32.1286 203.963 32.5096 203.963 32.9357C203.963 33.4781 203.799 33.93 203.477 34.2852C203.149 34.6403 202.664 34.8598 202.021 34.9567C202.343 35.1439 202.605 35.3441 202.815 35.5636C203.025 35.7831 203.307 36.177 203.661 36.7387L204.56 38.1527H202.782L201.706 36.5773C201.326 36.0156 201.063 35.6604 200.919 35.5119C200.781 35.3634 200.631 35.2666 200.473 35.2085C200.316 35.1568 200.066 35.1245 199.725 35.1245H199.424V38.1527H197.935ZM199.424 33.9688H200.526C201.241 33.9688 201.687 33.9365 201.864 33.8784C202.041 33.8203 202.179 33.717 202.284 33.5749C202.389 33.4329 202.434 33.2456 202.434 33.0326C202.434 32.7872 202.369 32.5935 202.238 32.4385C202.106 32.29 201.916 32.1932 201.68 32.1545C201.562 32.1351 201.195 32.1286 200.598 32.1286H199.437V33.9688H199.424Z" fill="#BA2331"/>
<path d="M210.024 30.9019H208.535V38.1527H210.024V30.9019Z" fill="#BA2331"/>
<path d="M216.321 38.1527V32.1286H214.137V30.9019H219.988V32.1286H217.804V38.1527H216.321Z" fill="#BA2331"/>
<path d="M224.258 38.1527V35.0987L221.556 30.9019H223.301L225.039 33.7686L226.738 30.9019H228.456L225.741 35.1116V38.1527H224.258Z" fill="#BA2331"/>
<path d="M232.674 9.00702C231.789 9.00702 230.949 8.66482 230.319 8.04497C229.689 7.42513 229.342 6.60513 229.342 5.72702C229.342 4.84891 229.689 4.02891 230.319 3.40907C230.949 2.78923 231.782 2.44702 232.674 2.44702C233.566 2.44702 234.399 2.78923 235.029 3.40907C235.659 4.02891 236.006 4.84891 236.006 5.72702C236.006 6.60513 235.659 7.42513 235.029 8.04497C234.399 8.66482 233.566 9.00702 232.674 9.00702ZM232.674 3.0023C231.933 3.0023 231.238 3.28639 230.713 3.80293C230.188 4.31946 229.899 5.00387 229.899 5.73348C229.899 6.46308 230.188 7.14749 230.713 7.66403C231.238 8.18056 231.933 8.46466 232.674 8.46466C233.415 8.46466 234.111 8.18056 234.635 7.66403C235.16 7.14749 235.449 6.46308 235.449 5.73348C235.449 5.00387 235.16 4.31946 234.635 3.80293C234.111 3.28639 233.415 3.0023 232.674 3.0023Z" fill="#292928"/>
<path d="M231.802 4.22925C231.992 4.19051 232.267 4.17114 232.53 4.17114C232.937 4.17114 233.192 4.24217 233.376 4.40358C233.527 4.53272 233.606 4.72642 233.606 4.9524C233.606 5.33335 233.363 5.58516 233.055 5.68847V5.70138C233.278 5.77886 233.415 5.98547 233.488 6.28248C233.586 6.6828 233.652 6.96043 233.711 7.0702H233.317C233.271 6.98626 233.206 6.74091 233.12 6.37933C233.035 5.97902 232.878 5.83051 232.536 5.8176H232.182V7.06374H231.802V4.2228V4.22925ZM232.182 5.53996H232.569C232.976 5.53996 233.232 5.32043 233.232 4.99114C233.232 4.61665 232.956 4.45524 232.556 4.45524C232.372 4.45524 232.241 4.47461 232.182 4.48752V5.53996Z" fill="#292928"/>
<path d="M35.8871 10.9567C35.8346 10.4272 35.4804 9.72345 35.0475 9.47164C29.6293 6.32077 24.1783 3.22801 18.701 0.167542C18.314 -0.0519859 17.5859 -0.0584426 17.1989 0.154628C11.7216 3.2151 6.27065 6.31431 0.84589 9.45872C0.432637 9.69762 0.0390636 10.3562 0.032504 10.8275C-0.013413 13.223 -0.0396512 15.6249 0.144017 18.0074C0.616305 24.2897 2.55794 30.0233 7.42513 34.388C9.39956 36.1572 11.6233 37.7003 13.8797 39.1272C17.8614 41.6389 17.9073 41.5743 22.0398 39.2435C26.9989 36.4412 31.1904 32.8965 33.5191 27.5827C35.323 23.4633 35.8215 19.1115 35.933 14.3916C35.933 13.4425 36.0183 12.1964 35.8936 10.9696M29.439 28.2542C29.439 28.4801 29.2488 28.7965 29.052 28.9127C25.5361 31.0047 22.0005 33.0644 18.478 35.1499C18.1828 35.3242 17.9795 35.3049 17.704 35.137C14.129 33.0192 10.5475 30.9143 6.97908 28.7901C6.76918 28.6674 6.53959 28.3833 6.53303 28.1638C6.50023 26.3042 6.51335 24.4447 6.51335 22.4883C6.73638 22.5852 6.90037 22.6433 7.04468 22.7272C7.89742 23.2179 8.73049 23.7345 9.58979 24.2058C10.003 24.4318 10.2129 24.7223 10.1277 25.1743C9.92433 26.2009 10.4097 26.7433 11.3215 27.234C13.4862 28.3962 15.5787 29.6811 17.6909 30.9337C18.0451 31.1468 18.2943 31.1209 18.6354 30.9208C20.905 29.5713 23.1812 28.2412 25.4639 26.9176C25.7657 26.7433 25.8903 26.5431 25.8772 26.2009C25.851 25.3357 25.8444 24.4641 25.8772 23.5924C25.8903 23.1921 25.7394 22.9855 25.3918 22.7853C21.7119 20.6482 18.0451 18.4916 14.3717 16.3351C14.1815 16.2253 13.9978 16.1027 13.7354 15.9348C14.8768 15.2697 15.9394 14.6305 17.0218 14.0236C17.1398 13.959 17.3826 14.0042 17.5137 14.0817C21.3708 16.3286 25.2212 18.5756 29.0586 20.8483C29.2554 20.9646 29.4259 21.2874 29.4325 21.5198C29.4653 23.7668 29.4653 26.0137 29.4325 28.2542M29.4522 14.1657C29.3341 15.5668 29.4259 16.9937 29.4259 18.5433C28.2255 17.8395 27.1432 17.2197 26.0871 16.5675C25.9428 16.4771 25.8313 16.1801 25.8706 16.0058C26.1265 14.779 25.4902 14.1786 24.4669 13.6297C22.3744 12.5063 20.354 11.2666 18.314 10.0463C17.9401 9.8203 17.6712 9.84613 17.3104 10.0592C15.0801 11.3893 12.8368 12.7064 10.5868 14.0042C10.2195 14.2173 10.0818 14.4627 10.0949 14.8759C10.1277 15.7023 10.1342 16.5353 10.0949 17.3617C10.0752 17.7879 10.2392 18.0138 10.6 18.2269C14.2602 20.3576 17.9139 22.4948 21.5676 24.6384C21.7578 24.7482 21.948 24.8644 22.2432 25.0387C21.3839 25.5488 20.5574 25.9556 19.8358 26.4915C19.0618 27.0661 18.4714 26.9757 17.6646 26.4915C14.129 24.3543 10.5475 22.2882 6.97908 20.2091C6.64455 20.0154 6.48712 19.8023 6.48712 19.3956C6.50679 17.2132 6.50679 15.0244 6.48712 12.842C6.48712 12.4417 6.63143 12.2286 6.97252 12.0285C10.4753 9.98817 13.9716 7.9414 17.4547 5.88172C17.7761 5.68801 17.9992 5.73967 18.2943 5.90754C21.5151 7.81227 24.7096 9.76864 27.9959 11.5701C29.157 12.2028 29.5571 12.9195 29.4456 14.1721" fill="#BA2331"/>
<path d="M35.6317 7.03132C34.0837 7.03132 32.8242 5.79164 32.8242 4.26786C32.8242 2.74408 34.0837 1.50439 35.6317 1.50439C37.1798 1.50439 38.4392 2.74408 38.4392 4.26786C38.4392 5.79164 37.1798 7.03132 35.6317 7.03132ZM35.6317 1.94345C34.3264 1.94345 33.2703 2.98943 33.2703 4.26786C33.2703 5.54628 34.3329 6.59227 35.6317 6.59227C36.9305 6.59227 37.9932 5.54628 37.9932 4.26786C37.9932 2.98943 36.9305 1.94345 35.6317 1.94345Z" fill="#BA2331"/>
<path d="M34.4966 5.13316V3.7708H33.998V3.49316H35.3231V3.7708H34.8311V5.13316H34.4966Z" fill="#BA2331"/>
<path d="M35.54 5.13316V3.49316H36.0386L36.3469 4.61017L36.642 3.49316H37.1471V5.13316H36.8323V3.84183L36.5043 5.13316H36.1829L35.8483 3.84183V5.13316H35.54Z" fill="#BA2331"/>
</g>
<defs>
<clipPath id="clip0_634_3594">
<rect width="236" height="41" fill="white"/>
</clipPath>
</defs>
</svg>
