<?xml version="1.0" encoding="UTF-8"?>
<svg id="Layer_1" xmlns="http://www.w3.org/2000/svg" version="1.1" viewBox="0 0 154.91 41">
  <!-- Generator: Adobe Illustrator 29.5.0, SVG Export Plug-In . SVG Version: 2.1.0 Build 137)  -->
  <defs>
    <style>
      .st0 {
        fill: #1d61d8;
      }

      .st1 {
        fill: #0fbc66;
      }
    </style>
  </defs>
  <g>
    <path d="M56.09,25.26v-11.53h-4.15v-2.66h11.32v2.66h-4.13v11.53h-3.04Z"/>
    <path d="M70.32,25.26v-1.32c-.81,1.02-1.91,1.57-3.17,1.57-2.57,0-4.55-1.96-4.55-5.4s1.94-5.38,4.55-5.38c1.21,0,2.34.51,3.17,1.57v-1.32h2.72v10.28h-2.72ZM70.32,21.94v-3.62c-.45-.68-1.43-1.19-2.32-1.19-1.55,0-2.62,1.21-2.62,2.98s1.06,3,2.62,3c.89,0,1.87-.49,2.32-1.17Z"/>
    <path d="M82.3,25.26l-2.34-3.47-2.36,3.47h-3l3.66-5.28-3.45-5h3.02l2.13,3.15,2.11-3.15h3.02l-3.43,5,3.66,5.28h-3.02Z"/>
    <path d="M86.94,25.26v-14.19h7.47c2.7,0,4.08,1.72,4.08,3.62,0,1.77-1.11,2.98-2.45,3.25,1.53.23,2.72,1.7,2.72,3.47,0,2.15-1.4,3.85-4.13,3.85h-7.7ZM95.4,15.21c0-.87-.64-1.49-1.66-1.49h-3.79v2.98h3.79c1.02,0,1.66-.57,1.66-1.49ZM95.68,20.98c0-.89-.64-1.62-1.81-1.62h-3.91v3.23h3.91c1.13,0,1.81-.6,1.81-1.62Z"/>
    <path d="M101.19,25.26v-10.28h2.7v1.38c.74-.89,2-1.64,3.28-1.64v2.64c-.19-.04-.43-.06-.74-.06-.89,0-2.08.51-2.53,1.17v6.79h-2.7Z"/>
    <path d="M108.8,12.26c0-.89.72-1.6,1.6-1.6s1.62.7,1.62,1.6-.72,1.62-1.62,1.62-1.6-.72-1.6-1.62ZM109.06,25.26v-10.28h2.7v10.28h-2.7Z"/>
    <path d="M121.72,25.26v-1.32c-.81,1.02-1.91,1.57-3.17,1.57-2.57,0-4.55-1.96-4.55-5.4s1.94-5.38,4.55-5.38c1.21,0,2.36.51,3.17,1.57v-5.23h2.72v14.19h-2.72ZM121.72,21.94v-3.64c-.45-.68-1.43-1.17-2.32-1.17-1.55,0-2.62,1.21-2.62,2.98s1.06,3,2.62,3c.89,0,1.87-.49,2.32-1.17Z"/>
    <path d="M127.12,27.89l1.21-1.94c.83.89,1.94,1.26,3.21,1.26s2.85-.55,2.85-2.64v-1c-.81,1.02-1.91,1.6-3.19,1.6-2.55,0-4.53-1.79-4.53-5.21s1.94-5.23,4.53-5.23c1.23,0,2.36.51,3.19,1.57v-1.32h2.7v9.59c0,3.89-3.02,4.85-5.55,4.85-1.74,0-3.13-.4-4.42-1.53ZM134.4,21.62v-3.34c-.47-.66-1.45-1.15-2.32-1.15-1.55,0-2.62,1.06-2.62,2.83s1.06,2.83,2.62,2.83c.87,0,1.85-.51,2.32-1.17Z"/>
    <path d="M139.33,20.11c0-2.98,2.21-5.38,5.32-5.38s5.15,2.3,5.15,5.64v.64h-7.64c.19,1.26,1.21,2.3,2.96,2.3.87,0,2.06-.36,2.72-1l1.21,1.79c-1.02.94-2.64,1.43-4.23,1.43-3.13,0-5.49-2.11-5.49-5.4ZM144.65,16.94c-1.68,0-2.4,1.17-2.51,2.19h5.06c-.09-.98-.77-2.19-2.55-2.19Z"/>
  </g>
  <g>
    <g>
      <path class="st0" d="M12.34,10.64l3.85,15.38.4,1.6c.06-.02.11-.05.17-.07,0,0,.02,0,.03-.01l-1.94-17.43-2.51.53Z"/>
      <polygon class="st0" points="15.92 9.89 17.75 26.41 17.83 27.14 17.84 27.14 17.84 9.48 17.84 7.09 15.63 7.35 15.92 9.89"/>
      <path class="st0" d="M37.43,4.05h-18.5v22.72s0,0,.01,0c.1-.03.2-.06.29-.09.1-.03.2-.06.29-.09.09-.03.18-.05.27-.08.02,0,.04-.01.06-.02.09-.02.17-.05.26-.07.14-.04.28-.07.42-.11.07-.02.15-.04.22-.06.08-.02.15-.04.23-.06.02,0,.05-.01.07-.02.09-.02.17-.04.26-.06.1-.02.2-.05.3-.07.05-.01.1-.02.16-.04,0,0,0,0,.01,0,.07-.02.15-.03.22-.05.05,0,.09-.02.14-.03.23-.05.46-.1.69-.14.1-.02.2-.04.31-.06.1-.02.2-.03.3-.05,0,0,.02,0,.03,0,.1-.02.19-.03.29-.05.22-.04.45-.07.68-.1.07,0,.14-.02.21-.03.04,0,.09-.01.13-.02.14-.02.28-.03.42-.05.09-.01.18-.02.26-.03.09,0,.19-.02.28-.03.06,0,.12-.01.18-.02.22-.02.45-.04.67-.05.07,0,.15,0,.22-.01.08,0,.17,0,.25-.01.02,0,.04,0,.05,0,.21-.01.41-.02.62-.03.06,0,.12,0,.18,0,.11,0,.23,0,.34,0,.07,0,.15,0,.22,0,.12,0,.23,0,.35,0,.09,0,.19,0,.28,0,.06,0,.13,0,.19,0,.12,0,.24,0,.35,0,.02,0,.03,0,.04,0,.08,0,.15,0,.23,0h0c.14,0,.28,0,.41.02.12,0,.24.01.36.02.15,0,.31.02.46.03,0,0,0,0,.01,0,.14,0,.28.02.42.03.25.02.51.05.76.07.09,0,.17.02.26.03,0,0,0,0,0,0,.13.01.25.03.38.05.11.01.21.03.32.04.12.02.24.03.36.05.09.01.18.03.26.04.01,0,.03,0,.05,0,.12.02.24.04.36.06,0,0,0,0,0,0,.12.02.25.04.37.07.03,0,.06.01.09.02.14.03.29.05.43.08.15.03.3.06.44.09.11.02.22.05.33.07.05.01.11.02.16.04.1.02.2.05.3.07.06.01.11.03.17.04.12.03.24.06.36.09.01,0,.03,0,.04,0,.13.03.27.07.4.11.14.04.29.08.43.12.14.04.29.08.43.13.17.05.33.1.5.16.12.04.24.08.35.12.14.05.28.1.42.14.26.09.53.19.79.29.03,0,.06.02.08.03.1.04.21.08.31.12.02,0,.05.02.07.03.14.05.28.11.41.17.14.06.27.11.41.17.12.05.25.11.37.16.28.13.56.25.84.39.19.09.37.18.56.27.07.04.15.07.22.11V4.05h-6.2ZM39.43,20.89h-16.3v-2h16.3v2ZM39.43,16.9h-16.3v-2h16.3v2ZM39.43,11.47v1.44h-12.87v-2h12.87v.55Z"/>
    </g>
    <path class="st1" d="M60.84,39.25c-.1-.13-.2-.26-.3-.39-.04-.05-.07-.1-.11-.14-.1-.13-.21-.26-.31-.39-.12-.15-.25-.3-.37-.45-.23-.28-.47-.56-.71-.83-.04-.04-.07-.08-.11-.12-.1-.11-.2-.22-.3-.33-.02-.03-.05-.05-.07-.08-.1-.11-.2-.22-.31-.33-.02-.02-.05-.05-.07-.08-.13-.14-.26-.27-.39-.41-.11-.11-.21-.22-.32-.32-.05-.05-.1-.1-.15-.15-.02-.02-.05-.05-.07-.07-.08-.08-.17-.17-.25-.25-.02-.02-.04-.04-.06-.06-.11-.11-.22-.21-.33-.32-.02-.02-.04-.04-.06-.06-.14-.13-.29-.27-.43-.4-.14-.13-.29-.26-.43-.39-.15-.13-.29-.26-.44-.38-.13-.11-.25-.22-.38-.32,0,0,0,0,0,0-.06-.05-.13-.1-.19-.16-.28-.23-.56-.45-.84-.67-.12-.09-.24-.19-.36-.28-.02-.02-.05-.04-.07-.05-.12-.09-.24-.18-.36-.27-.05-.04-.1-.07-.15-.11-.13-.1-.26-.19-.4-.28-.16-.11-.32-.22-.48-.33-.15-.1-.3-.2-.46-.3-.02-.02-.05-.03-.07-.05-.15-.1-.29-.19-.44-.29,0,0-.01,0-.01-.01-.16-.1-.32-.2-.48-.3,0,0,0,0,0,0-.17-.1-.33-.2-.5-.3-.15-.09-.31-.18-.46-.27-.35-.2-.71-.4-1.07-.59-.17-.09-.34-.18-.52-.27-.17-.09-.33-.17-.5-.25-.01,0-.03-.01-.04-.02-.14-.07-.29-.14-.44-.21-.05-.02-.09-.04-.14-.07-.16-.07-.31-.15-.47-.22-.09-.04-.17-.08-.26-.11-.31-.14-.62-.27-.94-.4h0s-.03-.01-.05-.02c-.03-.01-.06-.03-.09-.04-.07-.03-.14-.06-.21-.09,0,0,0,0-.01,0-.09-.04-.18-.07-.27-.1-.22-.09-.44-.17-.66-.25-.33-.12-.66-.24-.99-.35-.15-.05-.29-.1-.44-.14-.16-.05-.32-.1-.48-.15-.16-.05-.32-.1-.49-.15-.03,0-.05-.02-.08-.02-.12-.04-.24-.07-.37-.1-.03,0-.07-.02-.1-.03-.31-.09-.62-.17-.93-.24-.17-.04-.33-.08-.5-.12-.14-.03-.28-.07-.42-.09-.19-.04-.39-.09-.58-.12-.17-.03-.34-.07-.5-.1-.17-.03-.34-.06-.51-.09-.16-.03-.31-.05-.47-.08-.01,0-.03,0-.04,0-.14-.02-.28-.04-.42-.06-.06-.01-.13-.02-.2-.03-.12-.02-.23-.03-.35-.05-.06,0-.12-.02-.19-.02-.13-.02-.26-.03-.38-.05-.17-.02-.34-.04-.52-.06-.17-.02-.33-.03-.5-.05-.03,0-.07,0-.1,0-.14-.01-.28-.03-.43-.03,0,0,0,0,0,0-.14-.01-.28-.02-.42-.03-.02,0-.04,0-.05,0-.1,0-.2-.01-.31-.02-.14,0-.28-.01-.42-.02-.12,0-.24-.01-.37-.01-.15,0-.29,0-.44-.01,0,0,0,0,0,0-.1,0-.2,0-.3,0-.29,0-.58,0-.87,0-.16,0-.32,0-.49,0,0,0-.01,0-.01,0-.18,0-.35,0-.53.02-.14,0-.27.01-.41.02-.16,0-.31.02-.47.03h0c-.09,0-.17,0-.26.02-.02,0-.03,0-.05,0-.13,0-.27.02-.4.03-.07,0-.14.01-.21.02-.11,0-.21.02-.32.03-.13.01-.27.03-.4.04-.08,0-.17.02-.25.03-.13.01-.26.03-.38.04-.07,0-.14.02-.21.03-.24.03-.47.06-.71.1-.02,0-.04,0-.06.01-.09.01-.19.03-.28.04-.08.01-.17.03-.25.04-.25.04-.51.09-.76.13-.07.01-.14.02-.21.04-.11.02-.21.04-.32.06-.1.02-.2.04-.3.06-.16.03-.31.07-.47.1-.05.01-.1.02-.15.03-.08.02-.16.04-.23.05-.25.06-.51.12-.76.19-.11.03-.22.05-.32.08-.01,0-.02,0-.03,0-.11.03-.22.06-.34.09-.12.03-.23.06-.34.1-.26.07-.52.15-.78.23-.05.01-.1.03-.15.05-.08.03-.16.05-.24.08,0,0,0,0-.01,0-.06.02-.12.04-.17.06-.11.04-.22.08-.34.11-.1.03-.19.07-.29.1-.03,0-.05.02-.08.03-.09.03-.17.06-.25.09-.08.03-.16.06-.24.09-.15.06-.31.11-.46.17-.09.04-.19.07-.28.11-.02,0-.05.02-.07.03-.1.04-.2.08-.3.12-.11.05-.22.09-.33.13-.11.04-.22.09-.32.14,0,0,0,0-.01,0-.06.03-.12.05-.18.08-.1.04-.2.08-.3.13h0s-.1.04-.14.06c-.01,0-.02,0-.03.02-.05.02-.1.05-.16.07-.05.02-.1.04-.14.07-.03.01-.06.03-.08.04-.01,0-.02,0-.03.02-.04.02-.09.04-.13.06,0,0,0,0,0,0-.09.04-.19.09-.28.13,0,0-.02,0-.03.01,0,0-.02,0-.03.01-.07.03-.14.07-.2.1-.21.1-.41.2-.61.31,0,0-.02,0-.03.01-.06.03-.13.06-.19.1-.02.01-.05.03-.07.04-.55.29-1.09.59-1.63.91-.12.07-.25.14-.37.22-.41.25-.81.5-1.2.76-.11.07-.21.14-.32.21-.66.44-1.3.9-1.92,1.39-.14.11-.28.22-.42.33-.14.11-.28.23-.43.34-.02.02-.04.04-.07.06-.14.11-.27.22-.41.34-.15.13-.3.25-.44.38-.17.15-.33.29-.5.44-.11.1-.22.2-.33.3-.03.02-.05.05-.08.07-.11.1-.22.2-.32.31-.28.26-.55.53-.82.8-.05.06-.11.11-.16.17-.09.09-.17.18-.26.27-.04.04-.08.08-.12.13-.08.08-.15.16-.22.24-.04.05-.09.09-.13.14-.12.13-.24.26-.35.39,0,0,0,0,0,0-.13.14-.25.28-.37.43-.09.11-.19.22-.28.33-.07.09-.15.18-.22.26-.03.03-.05.06-.08.09-.07.09-.14.17-.21.26-.11.13-.21.26-.31.39,3.78-2.67,7.96-4.84,12.45-6.4.18-.06.35-.12.53-.18,0,0,0,0,.01,0,.08-.03.15-.05.23-.08.09-.03.18-.06.27-.09.1-.03.2-.06.29-.09.04-.01.08-.02.12-.04.09-.03.19-.06.28-.09.11-.03.22-.07.33-.1.14-.04.28-.08.42-.12.02,0,.04-.01.06-.02.32-.09.64-.18.96-.27,1.24-.33,2.49-.62,3.77-.85,0,0,0,0,0,0,.5-.09,1.01-.18,1.52-.26.15-.02.31-.05.46-.07.27-.04.55-.08.82-.11h0c.1-.01.21-.03.31-.04.47-.06.94-.11,1.42-.16.05,0,.11-.01.16-.01,4.79-.44,9.48-.19,13.99.67.02,0,.04,0,.06.01.22.04.43.08.65.13.64.13,1.28.28,1.92.43.8.2,1.6.41,2.39.65.13.04.26.08.39.12.42.13.84.27,1.26.41,5.04,1.7,9.74,4.18,13.96,7.32-.01-.03-.02-.05-.03-.08Z"/>
  </g>
</svg>